<svg viewBox="-70 -50 612 612" fill="none" xmlns="http://www.w3.org/2000/svg">
<rect x="-70" y="-50" width="612" height="612" fill="#cbfb83"/>
<path d="m344.300781 0h-29.5c-49.902343 0-90.5 40.597656-90.5 90.5v10.007812c-6.359375-5.730468-13.53125-10.574218-21.320312-14.328124-1.269531-22.925782-9.710938-43.601563-24.125-58.726563-15.46875-16.226563-36.652344-25.164063-59.648438-25.164063h-15v19.855469l-44.558593-13.34375v42.25c-25.46875 13.933594-44.148438 28.796875-45.007813 29.488281l-14.640625 11.710938 14.640625 11.710938c.859375.691406 19.539063 15.554687 45.007813 29.488281v42.25l44.5625-13.34375v19.855469h15c39.074218 0 70.296874-25.78125 80.445312-63.152344 14.9375 11.027344 24.644531 28.746094 24.644531 48.691406v46.246094c-11.792969 3.046875-22.179687 9.605468-30 18.480468-11.003906-12.484374-27.09375-20.378906-45-20.378906-33.085937 0-60 26.917969-60 60 0 30.835938 23.382813 56.300782 53.34375 59.621094-5.292969 8.9375-8.34375 19.355469-8.34375 30.476562 0 30.777344 23.300781 56.207032 53.1875 59.601563-5.195312 8.878906-8.1875 19.195313-8.1875 30.203125 0 33.085938 26.914063 60 60 60 33.082031 0 60-26.914062 60-60 0-11.007812-2.996093-21.324219-8.191406-30.203125 29.886719-3.394531 53.191406-28.824219 53.191406-59.601563 0-11.121093-3.054687-21.539062-8.347656-30.476562 29.964844-3.320312 53.347656-28.785156 53.347656-59.621094 0-33.082031-26.917969-60-60-60-17.910156 0-33.996093 7.894532-45 20.378906-7.824219-8.875-18.207031-15.433593-30-18.480468v-123.496094c0-33.359375 27.140625-60.5 60.5-60.5h29.5c24.8125 0 45 20.1875 45 45v60c0 8.269531-6.730469 15-15 15-8.273437 0-15-6.730469-15-15v-28h-30v28c0 24.8125 20.1875 45 45 45s45-20.1875 45-45v-60c0-41.355469-33.644531-75-75-75zm-210.09375 150.140625v-28.082031l-44.558593 13.34375v-20.210938l-8.214844-4.167968c-12.257813-6.214844-23.34375-13.113282-31.773438-18.773438 8.429688-5.660156 19.515625-12.558594 31.773438-18.773438l8.214844-4.164062v-20.210938l44.5625 13.34375v-28.171874c19.441406 5.378906 33.335937 21.355468 37.585937 43.335937-2.636719-.234375-37.496094-.359375-37.496094-.359375v30s34.71875.1875 37.261719.515625c-4.554688 21.203125-18.453125 36.9375-37.355469 42.375zm-14.90625 121.957031c0-16.542968 13.457031-30 30-30s30 13.457032 30 30c0 16.542969-13.457031 30-30 30s-30-13.457031-30-30zm45 90.097656c0-16.542968 13.457031-30 30-30s30 13.457032 30 30c0 16.539063-13.457031 30-30 30s-30-13.460937-30-30zm75 119.804688c-16.542969 0-30-13.457031-30-30s13.457031-30 30-30 30 13.457031 30 30-13.457031 30-30 30zm45-89.804688c-16.542969 0-30-13.460937-30-30 0-16.542968 13.457031-30 30-30s30 13.457032 30 30c0 16.539063-13.457031 30-30 30zm45-150.097656c16.542969 0 30 13.457032 30 30 0 16.542969-13.457031 30-30 30s-30-13.457031-30-30c0-16.542968 13.457031-30 30-30zm-60 30c0 16.542969-13.457031 30-30 30s-30-13.457031-30-30c0-16.542968 13.457031-30 30-30s30 13.457032 30 30zm0 0" fill="#121212"/>
</svg>