<svg xmlns="http://www.w3.org/2000/svg" height="24px" viewBox="0 -960 960 960" width="24px" fill="currentColor"><path d="m240-198 79-32q-10-29-18.5-59T287-349l-47 32v119Zm160-42h160q18-40 29-97.5T600-455q0-99-33-187.5T480-779q-54 48-87 136.5T360-455q0 60 11 117.5t29 97.5Zm23.5-223.5Q400-487 400-520t23.5-56.5Q447-600 480-600t56.5 23.5Q560-553 560-520t-23.5 56.5Q513-440 480-440t-56.5-23.5ZM720-198v-119l-47-32q-5 30-13.5 60T641-230l79 32ZM480-881q99 72 149.5 183T680-440l84 56q17 11 26.5 29t9.5 38v237l-199-80H359L160-80v-237q0-20 9.5-38t26.5-29l84-56q0-147 50.5-258T480-881Z"/></svg>